<mxfile host="Electron" modified="2024-01-16T07:00:24.840Z" agent="Mozilla/5.0 (Windows NT 10.0; Win64; x64) AppleWebKit/537.36 (KHTML, like Gecko) draw.io/22.0.3 Chrome/114.0.5735.289 Electron/25.8.4 Safari/537.36" etag="PL_tku_O3ZLhloNC3kkn" version="22.0.3" type="device">
  <diagram name="Sayfa -1" id="4EkLQNwjmOyuMBkgFmh3">
    <mxGraphModel dx="2327" dy="887" grid="1" gridSize="10" guides="1" tooltips="1" connect="1" arrows="1" fold="1" page="1" pageScale="1" pageWidth="827" pageHeight="1169" math="0" shadow="0">
      <root>
        <mxCell id="0" />
        <mxCell id="1" parent="0" />
        <mxCell id="xW9AtsY4_7O7bejqgjF3-2" style="edgeStyle=orthogonalEdgeStyle;rounded=0;orthogonalLoop=1;jettySize=auto;html=1;" edge="1" parent="1" source="xW9AtsY4_7O7bejqgjF3-1">
          <mxGeometry relative="1" as="geometry">
            <mxPoint x="354" y="80" as="targetPoint" />
          </mxGeometry>
        </mxCell>
        <mxCell id="xW9AtsY4_7O7bejqgjF3-1" value="Start" style="strokeWidth=2;html=1;shape=mxgraph.flowchart.start_1;whiteSpace=wrap;" vertex="1" parent="1">
          <mxGeometry x="326" y="10" width="56" height="40" as="geometry" />
        </mxCell>
        <mxCell id="xW9AtsY4_7O7bejqgjF3-4" style="edgeStyle=orthogonalEdgeStyle;rounded=0;orthogonalLoop=1;jettySize=auto;html=1;exitX=1;exitY=0.5;exitDx=0;exitDy=0;exitPerimeter=0;" edge="1" parent="1" source="xW9AtsY4_7O7bejqgjF3-3">
          <mxGeometry relative="1" as="geometry">
            <mxPoint x="500" y="130.14285714285717" as="targetPoint" />
          </mxGeometry>
        </mxCell>
        <mxCell id="xW9AtsY4_7O7bejqgjF3-5" value="true" style="edgeLabel;html=1;align=center;verticalAlign=middle;resizable=0;points=[];" vertex="1" connectable="0" parent="xW9AtsY4_7O7bejqgjF3-4">
          <mxGeometry x="-0.2089" y="2" relative="1" as="geometry">
            <mxPoint x="-16" y="2" as="offset" />
          </mxGeometry>
        </mxCell>
        <mxCell id="xW9AtsY4_7O7bejqgjF3-16" style="edgeStyle=orthogonalEdgeStyle;rounded=0;orthogonalLoop=1;jettySize=auto;html=1;" edge="1" parent="1" source="xW9AtsY4_7O7bejqgjF3-3">
          <mxGeometry relative="1" as="geometry">
            <mxPoint x="230" y="130" as="targetPoint" />
            <Array as="points">
              <mxPoint x="250" y="130" />
              <mxPoint x="250" y="130" />
            </Array>
          </mxGeometry>
        </mxCell>
        <mxCell id="xW9AtsY4_7O7bejqgjF3-17" value="false" style="edgeLabel;html=1;align=center;verticalAlign=middle;resizable=0;points=[];" vertex="1" connectable="0" parent="xW9AtsY4_7O7bejqgjF3-16">
          <mxGeometry x="-0.0682" y="-1" relative="1" as="geometry">
            <mxPoint as="offset" />
          </mxGeometry>
        </mxCell>
        <mxCell id="xW9AtsY4_7O7bejqgjF3-3" value="is ROW and&lt;br&gt;COLUMN &amp;lt; 10" style="strokeWidth=2;html=1;shape=mxgraph.flowchart.decision;whiteSpace=wrap;" vertex="1" parent="1">
          <mxGeometry x="297" y="80" width="113" height="100" as="geometry" />
        </mxCell>
        <mxCell id="xW9AtsY4_7O7bejqgjF3-7" style="edgeStyle=orthogonalEdgeStyle;rounded=0;orthogonalLoop=1;jettySize=auto;html=1;" edge="1" parent="1" source="xW9AtsY4_7O7bejqgjF3-6">
          <mxGeometry relative="1" as="geometry">
            <mxPoint x="570" y="130" as="targetPoint" />
          </mxGeometry>
        </mxCell>
        <mxCell id="xW9AtsY4_7O7bejqgjF3-6" value="Greet users and give game rules" style="strokeWidth=2;html=1;shape=mxgraph.flowchart.document2;whiteSpace=wrap;size=0.25;" vertex="1" parent="1">
          <mxGeometry x="450" y="100" width="100" height="60" as="geometry" />
        </mxCell>
        <mxCell id="xW9AtsY4_7O7bejqgjF3-20" style="edgeStyle=orthogonalEdgeStyle;rounded=0;orthogonalLoop=1;jettySize=auto;html=1;" edge="1" parent="1" source="xW9AtsY4_7O7bejqgjF3-8">
          <mxGeometry relative="1" as="geometry">
            <mxPoint x="700" y="130" as="targetPoint" />
          </mxGeometry>
        </mxCell>
        <mxCell id="xW9AtsY4_7O7bejqgjF3-8" value="Get board size" style="rounded=1;whiteSpace=wrap;html=1;absoluteArcSize=1;arcSize=14;strokeWidth=2;" vertex="1" parent="1">
          <mxGeometry x="570" y="90" width="90" height="80" as="geometry" />
        </mxCell>
        <mxCell id="xW9AtsY4_7O7bejqgjF3-18" value="Board size accepted" style="rounded=1;whiteSpace=wrap;html=1;absoluteArcSize=1;arcSize=14;strokeWidth=2;" vertex="1" parent="1">
          <mxGeometry x="170" y="100" width="60" height="60" as="geometry" />
        </mxCell>
        <mxCell id="xW9AtsY4_7O7bejqgjF3-131" style="edgeStyle=orthogonalEdgeStyle;rounded=0;orthogonalLoop=1;jettySize=auto;html=1;exitX=0.5;exitY=1;exitDx=0;exitDy=0;entryX=0.5;entryY=0;entryDx=0;entryDy=0;" edge="1" parent="1" source="xW9AtsY4_7O7bejqgjF3-21" target="xW9AtsY4_7O7bejqgjF3-26">
          <mxGeometry relative="1" as="geometry" />
        </mxCell>
        <mxCell id="xW9AtsY4_7O7bejqgjF3-132" value="&lt;font style=&quot;font-size: 24px;&quot;&gt;if valid&lt;/font&gt;" style="edgeLabel;html=1;align=center;verticalAlign=middle;resizable=0;points=[];" vertex="1" connectable="0" parent="xW9AtsY4_7O7bejqgjF3-131">
          <mxGeometry x="0.0055" y="-1" relative="1" as="geometry">
            <mxPoint as="offset" />
          </mxGeometry>
        </mxCell>
        <mxCell id="xW9AtsY4_7O7bejqgjF3-21" value="Check input" style="rounded=1;whiteSpace=wrap;html=1;absoluteArcSize=1;arcSize=14;strokeWidth=2;" vertex="1" parent="1">
          <mxGeometry x="700" y="90" width="80" height="80" as="geometry" />
        </mxCell>
        <mxCell id="xW9AtsY4_7O7bejqgjF3-22" style="edgeStyle=orthogonalEdgeStyle;rounded=0;orthogonalLoop=1;jettySize=auto;html=1;exitX=0.5;exitY=0;exitDx=0;exitDy=0;entryX=1;entryY=0.5;entryDx=0;entryDy=0;entryPerimeter=0;" edge="1" parent="1" source="xW9AtsY4_7O7bejqgjF3-21" target="xW9AtsY4_7O7bejqgjF3-1">
          <mxGeometry relative="1" as="geometry" />
        </mxCell>
        <mxCell id="xW9AtsY4_7O7bejqgjF3-133" value="&lt;font style=&quot;font-size: 24px;&quot;&gt;if not valid&lt;/font&gt;" style="edgeLabel;html=1;align=center;verticalAlign=middle;resizable=0;points=[];" vertex="1" connectable="0" parent="xW9AtsY4_7O7bejqgjF3-22">
          <mxGeometry x="0.1155" relative="1" as="geometry">
            <mxPoint as="offset" />
          </mxGeometry>
        </mxCell>
        <mxCell id="xW9AtsY4_7O7bejqgjF3-32" style="edgeStyle=orthogonalEdgeStyle;rounded=0;orthogonalLoop=1;jettySize=auto;html=1;" edge="1" parent="1" source="xW9AtsY4_7O7bejqgjF3-29">
          <mxGeometry relative="1" as="geometry">
            <mxPoint x="-299.9999999999999" y="510" as="targetPoint" />
          </mxGeometry>
        </mxCell>
        <mxCell id="xW9AtsY4_7O7bejqgjF3-29" value="Place ships for P1" style="rounded=1;whiteSpace=wrap;html=1;absoluteArcSize=1;arcSize=14;strokeWidth=2;" vertex="1" parent="1">
          <mxGeometry x="-350" y="430" width="100" height="40" as="geometry" />
        </mxCell>
        <mxCell id="xW9AtsY4_7O7bejqgjF3-34" style="edgeStyle=orthogonalEdgeStyle;rounded=0;orthogonalLoop=1;jettySize=auto;html=1;" edge="1" parent="1" source="xW9AtsY4_7O7bejqgjF3-30">
          <mxGeometry relative="1" as="geometry">
            <mxPoint x="1018" y="520" as="targetPoint" />
          </mxGeometry>
        </mxCell>
        <mxCell id="xW9AtsY4_7O7bejqgjF3-30" value="Place ships for P2" style="rounded=1;whiteSpace=wrap;html=1;absoluteArcSize=1;arcSize=14;strokeWidth=2;" vertex="1" parent="1">
          <mxGeometry x="968" y="440" width="100" height="40" as="geometry" />
        </mxCell>
        <mxCell id="xW9AtsY4_7O7bejqgjF3-95" style="edgeStyle=orthogonalEdgeStyle;rounded=0;orthogonalLoop=1;jettySize=auto;html=1;exitX=0.5;exitY=1;exitDx=0;exitDy=0;exitPerimeter=0;entryX=0.5;entryY=0;entryDx=0;entryDy=0;" edge="1" parent="1" source="xW9AtsY4_7O7bejqgjF3-33" target="xW9AtsY4_7O7bejqgjF3-92">
          <mxGeometry relative="1" as="geometry" />
        </mxCell>
        <mxCell id="xW9AtsY4_7O7bejqgjF3-33" value="shipMaxL = 1&lt;br&gt;shipMaxL &amp;lt; 6&lt;br&gt;shipMaxL++" style="strokeWidth=2;html=1;shape=mxgraph.flowchart.decision;whiteSpace=wrap;" vertex="1" parent="1">
          <mxGeometry x="-359.06" y="510" width="118.12" height="130" as="geometry" />
        </mxCell>
        <mxCell id="xW9AtsY4_7O7bejqgjF3-126" style="edgeStyle=orthogonalEdgeStyle;rounded=0;orthogonalLoop=1;jettySize=auto;html=1;exitX=0.5;exitY=1;exitDx=0;exitDy=0;exitPerimeter=0;entryX=0.5;entryY=0;entryDx=0;entryDy=0;" edge="1" parent="1" source="xW9AtsY4_7O7bejqgjF3-36" target="xW9AtsY4_7O7bejqgjF3-124">
          <mxGeometry relative="1" as="geometry" />
        </mxCell>
        <mxCell id="xW9AtsY4_7O7bejqgjF3-36" value="shipMaxL = 1&lt;br&gt;shipMaxL &amp;lt; 6&lt;br&gt;shipMaxL++" style="strokeWidth=2;html=1;shape=mxgraph.flowchart.decision;whiteSpace=wrap;" vertex="1" parent="1">
          <mxGeometry x="960.25" y="520" width="115.5" height="130" as="geometry" />
        </mxCell>
        <mxCell id="xW9AtsY4_7O7bejqgjF3-39" value="Randomly select direction" style="rounded=1;whiteSpace=wrap;html=1;absoluteArcSize=1;arcSize=14;strokeWidth=2;" vertex="1" parent="1">
          <mxGeometry x="-425" y="810" width="110" height="50" as="geometry" />
        </mxCell>
        <mxCell id="xW9AtsY4_7O7bejqgjF3-61" style="edgeStyle=orthogonalEdgeStyle;rounded=0;orthogonalLoop=1;jettySize=auto;html=1;exitX=1;exitY=1;exitDx=0;exitDy=0;exitPerimeter=0;" edge="1" parent="1" source="xW9AtsY4_7O7bejqgjF3-60">
          <mxGeometry relative="1" as="geometry">
            <mxPoint x="-470" y="960.0000000000002" as="targetPoint" />
            <Array as="points">
              <mxPoint x="-420" y="920" />
              <mxPoint x="-470" y="920" />
            </Array>
          </mxGeometry>
        </mxCell>
        <mxCell id="xW9AtsY4_7O7bejqgjF3-64" style="edgeStyle=orthogonalEdgeStyle;rounded=0;orthogonalLoop=1;jettySize=auto;html=1;exitX=1;exitY=0;exitDx=0;exitDy=0;exitPerimeter=0;" edge="1" parent="1" source="xW9AtsY4_7O7bejqgjF3-60">
          <mxGeometry relative="1" as="geometry">
            <mxPoint x="-270" y="960" as="targetPoint" />
            <Array as="points">
              <mxPoint x="-320" y="920" />
              <mxPoint x="-270" y="920" />
            </Array>
          </mxGeometry>
        </mxCell>
        <mxCell id="xW9AtsY4_7O7bejqgjF3-60" value="" style="strokeWidth=2;html=1;shape=mxgraph.flowchart.annotation_2;align=left;labelPosition=right;pointerEvents=1;rotation=90;" vertex="1" parent="1">
          <mxGeometry x="-397.5" y="837.5" width="55" height="100" as="geometry" />
        </mxCell>
        <mxCell id="xW9AtsY4_7O7bejqgjF3-67" style="edgeStyle=orthogonalEdgeStyle;rounded=0;orthogonalLoop=1;jettySize=auto;html=1;" edge="1" parent="1" source="xW9AtsY4_7O7bejqgjF3-65">
          <mxGeometry relative="1" as="geometry">
            <mxPoint x="-475" y="1020.0000000000002" as="targetPoint" />
          </mxGeometry>
        </mxCell>
        <mxCell id="xW9AtsY4_7O7bejqgjF3-65" value="Horizontal" style="rounded=1;whiteSpace=wrap;html=1;absoluteArcSize=1;arcSize=14;strokeWidth=2;" vertex="1" parent="1">
          <mxGeometry x="-510" y="960" width="70" height="20" as="geometry" />
        </mxCell>
        <mxCell id="xW9AtsY4_7O7bejqgjF3-70" style="edgeStyle=orthogonalEdgeStyle;rounded=0;orthogonalLoop=1;jettySize=auto;html=1;exitX=0.5;exitY=1;exitDx=0;exitDy=0;entryX=0.5;entryY=0;entryDx=0;entryDy=0;" edge="1" parent="1" source="xW9AtsY4_7O7bejqgjF3-66">
          <mxGeometry relative="1" as="geometry">
            <mxPoint x="-268" y="1020" as="targetPoint" />
          </mxGeometry>
        </mxCell>
        <mxCell id="xW9AtsY4_7O7bejqgjF3-66" value="Vertical" style="rounded=1;whiteSpace=wrap;html=1;absoluteArcSize=1;arcSize=14;strokeWidth=2;" vertex="1" parent="1">
          <mxGeometry x="-303" y="960" width="70" height="20" as="geometry" />
        </mxCell>
        <mxCell id="xW9AtsY4_7O7bejqgjF3-71" style="edgeStyle=orthogonalEdgeStyle;rounded=0;orthogonalLoop=1;jettySize=auto;html=1;exitX=0.5;exitY=1;exitDx=0;exitDy=0;" edge="1" parent="1" source="xW9AtsY4_7O7bejqgjF3-68">
          <mxGeometry relative="1" as="geometry">
            <mxPoint x="-477.78260869565213" y="1110" as="targetPoint" />
          </mxGeometry>
        </mxCell>
        <mxCell id="xW9AtsY4_7O7bejqgjF3-68" value="Check spaces around" style="rounded=1;whiteSpace=wrap;html=1;absoluteArcSize=1;arcSize=14;strokeWidth=2;" vertex="1" parent="1">
          <mxGeometry x="-525" y="1020" width="95" height="30" as="geometry" />
        </mxCell>
        <mxCell id="xW9AtsY4_7O7bejqgjF3-75" style="edgeStyle=orthogonalEdgeStyle;rounded=0;orthogonalLoop=1;jettySize=auto;html=1;exitX=0.5;exitY=1;exitDx=0;exitDy=0;exitPerimeter=0;entryX=0.5;entryY=0;entryDx=0;entryDy=0;" edge="1" parent="1" source="xW9AtsY4_7O7bejqgjF3-73" target="xW9AtsY4_7O7bejqgjF3-74">
          <mxGeometry relative="1" as="geometry" />
        </mxCell>
        <mxCell id="xW9AtsY4_7O7bejqgjF3-73" value="k = 0&lt;br&gt;k &amp;lt; shipMaxL&lt;br&gt;k++" style="strokeWidth=2;html=1;shape=mxgraph.flowchart.decision;whiteSpace=wrap;" vertex="1" parent="1">
          <mxGeometry x="-528.25" y="1070" width="101.5" height="110" as="geometry" />
        </mxCell>
        <mxCell id="xW9AtsY4_7O7bejqgjF3-74" value="ship_ j + k = &#39;S&#39;&lt;br&gt;b++" style="rounded=1;whiteSpace=wrap;html=1;absoluteArcSize=1;arcSize=14;strokeWidth=2;" vertex="1" parent="1">
          <mxGeometry x="-531.5" y="1200" width="108" height="40" as="geometry" />
        </mxCell>
        <mxCell id="xW9AtsY4_7O7bejqgjF3-77" value="Check spaces around" style="rounded=1;whiteSpace=wrap;html=1;absoluteArcSize=1;arcSize=14;strokeWidth=2;" vertex="1" parent="1">
          <mxGeometry x="-315.5" y="1020" width="95" height="30" as="geometry" />
        </mxCell>
        <mxCell id="xW9AtsY4_7O7bejqgjF3-81" style="edgeStyle=orthogonalEdgeStyle;rounded=0;orthogonalLoop=1;jettySize=auto;html=1;exitX=0.5;exitY=1;exitDx=0;exitDy=0;exitPerimeter=0;entryX=0.5;entryY=0;entryDx=0;entryDy=0;" edge="1" parent="1" source="xW9AtsY4_7O7bejqgjF3-78" target="xW9AtsY4_7O7bejqgjF3-79">
          <mxGeometry relative="1" as="geometry" />
        </mxCell>
        <mxCell id="xW9AtsY4_7O7bejqgjF3-78" value="k = 0&lt;br&gt;k &amp;lt; shipMaxL&lt;br&gt;k++" style="strokeWidth=2;html=1;shape=mxgraph.flowchart.decision;whiteSpace=wrap;" vertex="1" parent="1">
          <mxGeometry x="-318.75" y="1070" width="101.5" height="110" as="geometry" />
        </mxCell>
        <mxCell id="xW9AtsY4_7O7bejqgjF3-79" value="ship_ i + k = &#39;S&#39;&lt;br&gt;b++" style="rounded=1;whiteSpace=wrap;html=1;absoluteArcSize=1;arcSize=14;strokeWidth=2;" vertex="1" parent="1">
          <mxGeometry x="-322" y="1200" width="108" height="40" as="geometry" />
        </mxCell>
        <mxCell id="xW9AtsY4_7O7bejqgjF3-80" style="edgeStyle=orthogonalEdgeStyle;rounded=0;orthogonalLoop=1;jettySize=auto;html=1;entryX=0.5;entryY=0;entryDx=0;entryDy=0;entryPerimeter=0;" edge="1" parent="1" source="xW9AtsY4_7O7bejqgjF3-77" target="xW9AtsY4_7O7bejqgjF3-78">
          <mxGeometry relative="1" as="geometry" />
        </mxCell>
        <mxCell id="xW9AtsY4_7O7bejqgjF3-139" style="edgeStyle=orthogonalEdgeStyle;rounded=0;orthogonalLoop=1;jettySize=auto;html=1;exitX=0;exitY=0.5;exitDx=0;exitDy=0;exitPerimeter=0;entryX=0;entryY=0.5;entryDx=0;entryDy=0;" edge="1" parent="1" source="xW9AtsY4_7O7bejqgjF3-83" target="xW9AtsY4_7O7bejqgjF3-39">
          <mxGeometry relative="1" as="geometry">
            <Array as="points">
              <mxPoint x="-660" y="1325" />
              <mxPoint x="-660" y="835" />
            </Array>
          </mxGeometry>
        </mxCell>
        <mxCell id="xW9AtsY4_7O7bejqgjF3-140" value="&lt;font style=&quot;font-size: 24px;&quot;&gt;true&lt;/font&gt;" style="edgeLabel;html=1;align=center;verticalAlign=middle;resizable=0;points=[];" vertex="1" connectable="0" parent="xW9AtsY4_7O7bejqgjF3-139">
          <mxGeometry x="0.0161" y="5" relative="1" as="geometry">
            <mxPoint as="offset" />
          </mxGeometry>
        </mxCell>
        <mxCell id="xW9AtsY4_7O7bejqgjF3-145" style="edgeStyle=orthogonalEdgeStyle;rounded=0;orthogonalLoop=1;jettySize=auto;html=1;exitX=1;exitY=0.5;exitDx=0;exitDy=0;exitPerimeter=0;entryX=0;entryY=0.5;entryDx=0;entryDy=0;" edge="1" parent="1" source="xW9AtsY4_7O7bejqgjF3-83" target="xW9AtsY4_7O7bejqgjF3-142">
          <mxGeometry relative="1" as="geometry">
            <Array as="points">
              <mxPoint x="-60" y="1325" />
              <mxPoint x="-60" y="470" />
            </Array>
          </mxGeometry>
        </mxCell>
        <mxCell id="xW9AtsY4_7O7bejqgjF3-147" value="&lt;font style=&quot;font-size: 24px;&quot;&gt;false&lt;/font&gt;" style="edgeLabel;html=1;align=center;verticalAlign=middle;resizable=0;points=[];" vertex="1" connectable="0" parent="xW9AtsY4_7O7bejqgjF3-145">
          <mxGeometry x="-0.7984" y="2" relative="1" as="geometry">
            <mxPoint as="offset" />
          </mxGeometry>
        </mxCell>
        <mxCell id="xW9AtsY4_7O7bejqgjF3-83" value="while&amp;nbsp;&lt;br&gt;b &amp;lt; shipMaxL" style="strokeWidth=2;html=1;shape=mxgraph.flowchart.decision;whiteSpace=wrap;" vertex="1" parent="1">
          <mxGeometry x="-420" y="1270" width="98" height="110" as="geometry" />
        </mxCell>
        <mxCell id="xW9AtsY4_7O7bejqgjF3-94" style="edgeStyle=orthogonalEdgeStyle;rounded=0;orthogonalLoop=1;jettySize=auto;html=1;exitX=0.5;exitY=1;exitDx=0;exitDy=0;" edge="1" parent="1" source="xW9AtsY4_7O7bejqgjF3-92" target="xW9AtsY4_7O7bejqgjF3-39">
          <mxGeometry relative="1" as="geometry" />
        </mxCell>
        <mxCell id="xW9AtsY4_7O7bejqgjF3-92" value="DO" style="rounded=1;whiteSpace=wrap;html=1;absoluteArcSize=1;arcSize=14;strokeWidth=2;" vertex="1" parent="1">
          <mxGeometry x="-481" y="690" width="101" height="30" as="geometry" />
        </mxCell>
        <mxCell id="xW9AtsY4_7O7bejqgjF3-101" value="Randomly select direction" style="rounded=1;whiteSpace=wrap;html=1;absoluteArcSize=1;arcSize=14;strokeWidth=2;" vertex="1" parent="1">
          <mxGeometry x="1185" y="815" width="110" height="50" as="geometry" />
        </mxCell>
        <mxCell id="xW9AtsY4_7O7bejqgjF3-102" style="edgeStyle=orthogonalEdgeStyle;rounded=0;orthogonalLoop=1;jettySize=auto;html=1;exitX=1;exitY=1;exitDx=0;exitDy=0;exitPerimeter=0;" edge="1" parent="1" source="xW9AtsY4_7O7bejqgjF3-104">
          <mxGeometry relative="1" as="geometry">
            <mxPoint x="1140" y="965.0000000000002" as="targetPoint" />
            <Array as="points">
              <mxPoint x="1190" y="925" />
              <mxPoint x="1140" y="925" />
            </Array>
          </mxGeometry>
        </mxCell>
        <mxCell id="xW9AtsY4_7O7bejqgjF3-103" style="edgeStyle=orthogonalEdgeStyle;rounded=0;orthogonalLoop=1;jettySize=auto;html=1;exitX=1;exitY=0;exitDx=0;exitDy=0;exitPerimeter=0;" edge="1" parent="1" source="xW9AtsY4_7O7bejqgjF3-104">
          <mxGeometry relative="1" as="geometry">
            <mxPoint x="1340" y="965" as="targetPoint" />
            <Array as="points">
              <mxPoint x="1290" y="925" />
              <mxPoint x="1340" y="925" />
            </Array>
          </mxGeometry>
        </mxCell>
        <mxCell id="xW9AtsY4_7O7bejqgjF3-104" value="" style="strokeWidth=2;html=1;shape=mxgraph.flowchart.annotation_2;align=left;labelPosition=right;pointerEvents=1;rotation=90;" vertex="1" parent="1">
          <mxGeometry x="1212.5" y="842.5" width="55" height="100" as="geometry" />
        </mxCell>
        <mxCell id="xW9AtsY4_7O7bejqgjF3-105" style="edgeStyle=orthogonalEdgeStyle;rounded=0;orthogonalLoop=1;jettySize=auto;html=1;" edge="1" parent="1" source="xW9AtsY4_7O7bejqgjF3-106">
          <mxGeometry relative="1" as="geometry">
            <mxPoint x="1135" y="1025.0000000000002" as="targetPoint" />
          </mxGeometry>
        </mxCell>
        <mxCell id="xW9AtsY4_7O7bejqgjF3-106" value="Horizontal" style="rounded=1;whiteSpace=wrap;html=1;absoluteArcSize=1;arcSize=14;strokeWidth=2;" vertex="1" parent="1">
          <mxGeometry x="1100" y="965" width="70" height="20" as="geometry" />
        </mxCell>
        <mxCell id="xW9AtsY4_7O7bejqgjF3-107" style="edgeStyle=orthogonalEdgeStyle;rounded=0;orthogonalLoop=1;jettySize=auto;html=1;exitX=0.5;exitY=1;exitDx=0;exitDy=0;entryX=0.5;entryY=0;entryDx=0;entryDy=0;" edge="1" parent="1" source="xW9AtsY4_7O7bejqgjF3-108">
          <mxGeometry relative="1" as="geometry">
            <mxPoint x="1342" y="1025" as="targetPoint" />
          </mxGeometry>
        </mxCell>
        <mxCell id="xW9AtsY4_7O7bejqgjF3-108" value="Vertical" style="rounded=1;whiteSpace=wrap;html=1;absoluteArcSize=1;arcSize=14;strokeWidth=2;" vertex="1" parent="1">
          <mxGeometry x="1307" y="965" width="70" height="20" as="geometry" />
        </mxCell>
        <mxCell id="xW9AtsY4_7O7bejqgjF3-109" style="edgeStyle=orthogonalEdgeStyle;rounded=0;orthogonalLoop=1;jettySize=auto;html=1;exitX=0.5;exitY=1;exitDx=0;exitDy=0;" edge="1" parent="1" source="xW9AtsY4_7O7bejqgjF3-110">
          <mxGeometry relative="1" as="geometry">
            <mxPoint x="1132.217391304348" y="1115" as="targetPoint" />
          </mxGeometry>
        </mxCell>
        <mxCell id="xW9AtsY4_7O7bejqgjF3-110" value="Check spaces around" style="rounded=1;whiteSpace=wrap;html=1;absoluteArcSize=1;arcSize=14;strokeWidth=2;" vertex="1" parent="1">
          <mxGeometry x="1085" y="1025" width="95" height="30" as="geometry" />
        </mxCell>
        <mxCell id="xW9AtsY4_7O7bejqgjF3-111" style="edgeStyle=orthogonalEdgeStyle;rounded=0;orthogonalLoop=1;jettySize=auto;html=1;exitX=0.5;exitY=1;exitDx=0;exitDy=0;exitPerimeter=0;entryX=0.5;entryY=0;entryDx=0;entryDy=0;" edge="1" parent="1" source="xW9AtsY4_7O7bejqgjF3-112" target="xW9AtsY4_7O7bejqgjF3-113">
          <mxGeometry relative="1" as="geometry" />
        </mxCell>
        <mxCell id="xW9AtsY4_7O7bejqgjF3-112" value="k = 0&lt;br&gt;k &amp;lt; shipMaxL&lt;br&gt;k++" style="strokeWidth=2;html=1;shape=mxgraph.flowchart.decision;whiteSpace=wrap;" vertex="1" parent="1">
          <mxGeometry x="1081.75" y="1075" width="101.5" height="110" as="geometry" />
        </mxCell>
        <mxCell id="xW9AtsY4_7O7bejqgjF3-113" value="ship_ j + k = &#39;S&#39;&lt;br&gt;b++" style="rounded=1;whiteSpace=wrap;html=1;absoluteArcSize=1;arcSize=14;strokeWidth=2;" vertex="1" parent="1">
          <mxGeometry x="1078.5" y="1205" width="108" height="40" as="geometry" />
        </mxCell>
        <mxCell id="xW9AtsY4_7O7bejqgjF3-114" value="Check spaces around" style="rounded=1;whiteSpace=wrap;html=1;absoluteArcSize=1;arcSize=14;strokeWidth=2;" vertex="1" parent="1">
          <mxGeometry x="1294.5" y="1025" width="95" height="30" as="geometry" />
        </mxCell>
        <mxCell id="xW9AtsY4_7O7bejqgjF3-115" style="edgeStyle=orthogonalEdgeStyle;rounded=0;orthogonalLoop=1;jettySize=auto;html=1;exitX=0.5;exitY=1;exitDx=0;exitDy=0;exitPerimeter=0;entryX=0.5;entryY=0;entryDx=0;entryDy=0;" edge="1" parent="1" source="xW9AtsY4_7O7bejqgjF3-116" target="xW9AtsY4_7O7bejqgjF3-118">
          <mxGeometry relative="1" as="geometry" />
        </mxCell>
        <mxCell id="xW9AtsY4_7O7bejqgjF3-116" value="k = 0&lt;br&gt;k &amp;lt; shipMaxL&lt;br&gt;k++" style="strokeWidth=2;html=1;shape=mxgraph.flowchart.decision;whiteSpace=wrap;" vertex="1" parent="1">
          <mxGeometry x="1291.25" y="1075" width="101.5" height="110" as="geometry" />
        </mxCell>
        <mxCell id="xW9AtsY4_7O7bejqgjF3-117" style="edgeStyle=orthogonalEdgeStyle;rounded=0;orthogonalLoop=1;jettySize=auto;html=1;exitX=0.5;exitY=1;exitDx=0;exitDy=0;" edge="1" parent="1" source="xW9AtsY4_7O7bejqgjF3-118" target="xW9AtsY4_7O7bejqgjF3-122">
          <mxGeometry relative="1" as="geometry" />
        </mxCell>
        <mxCell id="xW9AtsY4_7O7bejqgjF3-118" value="ship_ i + k = &#39;S&#39;&lt;br&gt;b++" style="rounded=1;whiteSpace=wrap;html=1;absoluteArcSize=1;arcSize=14;strokeWidth=2;" vertex="1" parent="1">
          <mxGeometry x="1288" y="1205" width="108" height="40" as="geometry" />
        </mxCell>
        <mxCell id="xW9AtsY4_7O7bejqgjF3-119" style="edgeStyle=orthogonalEdgeStyle;rounded=0;orthogonalLoop=1;jettySize=auto;html=1;entryX=0.5;entryY=0;entryDx=0;entryDy=0;entryPerimeter=0;" edge="1" parent="1" source="xW9AtsY4_7O7bejqgjF3-114" target="xW9AtsY4_7O7bejqgjF3-116">
          <mxGeometry relative="1" as="geometry" />
        </mxCell>
        <mxCell id="xW9AtsY4_7O7bejqgjF3-128" style="edgeStyle=orthogonalEdgeStyle;rounded=0;orthogonalLoop=1;jettySize=auto;html=1;exitX=1;exitY=0.5;exitDx=0;exitDy=0;exitPerimeter=0;entryX=1;entryY=0.5;entryDx=0;entryDy=0;" edge="1" parent="1" source="xW9AtsY4_7O7bejqgjF3-122" target="xW9AtsY4_7O7bejqgjF3-101">
          <mxGeometry relative="1" as="geometry">
            <Array as="points">
              <mxPoint x="1520" y="1340" />
              <mxPoint x="1520" y="840" />
            </Array>
          </mxGeometry>
        </mxCell>
        <mxCell id="xW9AtsY4_7O7bejqgjF3-129" value="&lt;font style=&quot;font-size: 24px;&quot;&gt;true&lt;/font&gt;" style="edgeLabel;html=1;align=center;verticalAlign=middle;resizable=0;points=[];" vertex="1" connectable="0" parent="xW9AtsY4_7O7bejqgjF3-128">
          <mxGeometry x="0.0218" y="2" relative="1" as="geometry">
            <mxPoint y="-25" as="offset" />
          </mxGeometry>
        </mxCell>
        <mxCell id="xW9AtsY4_7O7bejqgjF3-146" style="edgeStyle=orthogonalEdgeStyle;rounded=0;orthogonalLoop=1;jettySize=auto;html=1;exitX=0;exitY=0.5;exitDx=0;exitDy=0;exitPerimeter=0;entryX=1;entryY=0.5;entryDx=0;entryDy=0;" edge="1" parent="1" source="xW9AtsY4_7O7bejqgjF3-122" target="xW9AtsY4_7O7bejqgjF3-142">
          <mxGeometry relative="1" as="geometry">
            <Array as="points">
              <mxPoint x="870" y="1340" />
              <mxPoint x="870" y="470" />
            </Array>
          </mxGeometry>
        </mxCell>
        <mxCell id="xW9AtsY4_7O7bejqgjF3-148" value="&lt;font style=&quot;font-size: 24px;&quot;&gt;false&lt;/font&gt;" style="edgeLabel;html=1;align=center;verticalAlign=middle;resizable=0;points=[];" vertex="1" connectable="0" parent="xW9AtsY4_7O7bejqgjF3-146">
          <mxGeometry x="-0.8008" relative="1" as="geometry">
            <mxPoint as="offset" />
          </mxGeometry>
        </mxCell>
        <mxCell id="xW9AtsY4_7O7bejqgjF3-122" value="while&amp;nbsp;&lt;br&gt;b &amp;lt; shipMaxL" style="strokeWidth=2;html=1;shape=mxgraph.flowchart.decision;whiteSpace=wrap;" vertex="1" parent="1">
          <mxGeometry x="1186.5" y="1285" width="98" height="110" as="geometry" />
        </mxCell>
        <mxCell id="xW9AtsY4_7O7bejqgjF3-123" style="edgeStyle=orthogonalEdgeStyle;rounded=0;orthogonalLoop=1;jettySize=auto;html=1;exitX=0.5;exitY=1;exitDx=0;exitDy=0;" edge="1" parent="1" source="xW9AtsY4_7O7bejqgjF3-124" target="xW9AtsY4_7O7bejqgjF3-101">
          <mxGeometry relative="1" as="geometry" />
        </mxCell>
        <mxCell id="xW9AtsY4_7O7bejqgjF3-124" value="DO" style="rounded=1;whiteSpace=wrap;html=1;absoluteArcSize=1;arcSize=14;strokeWidth=2;" vertex="1" parent="1">
          <mxGeometry x="1129" y="695" width="101" height="30" as="geometry" />
        </mxCell>
        <mxCell id="xW9AtsY4_7O7bejqgjF3-125" style="edgeStyle=orthogonalEdgeStyle;rounded=0;orthogonalLoop=1;jettySize=auto;html=1;entryX=0.5;entryY=0;entryDx=0;entryDy=0;entryPerimeter=0;" edge="1" parent="1" source="xW9AtsY4_7O7bejqgjF3-113" target="xW9AtsY4_7O7bejqgjF3-122">
          <mxGeometry relative="1" as="geometry" />
        </mxCell>
        <mxCell id="xW9AtsY4_7O7bejqgjF3-130" value="" style="edgeStyle=orthogonalEdgeStyle;rounded=0;orthogonalLoop=1;jettySize=auto;html=1;exitX=1;exitY=0.5;exitDx=0;exitDy=0;" edge="1" parent="1" target="xW9AtsY4_7O7bejqgjF3-26">
          <mxGeometry relative="1" as="geometry">
            <mxPoint x="662" y="440" as="targetPoint" />
            <mxPoint x="354" y="345" as="sourcePoint" />
          </mxGeometry>
        </mxCell>
        <mxCell id="xW9AtsY4_7O7bejqgjF3-134" style="edgeStyle=orthogonalEdgeStyle;rounded=0;orthogonalLoop=1;jettySize=auto;html=1;exitX=1;exitY=0.5;exitDx=0;exitDy=0;entryX=0.5;entryY=0;entryDx=0;entryDy=0;" edge="1" parent="1" source="xW9AtsY4_7O7bejqgjF3-26" target="xW9AtsY4_7O7bejqgjF3-30">
          <mxGeometry relative="1" as="geometry" />
        </mxCell>
        <mxCell id="xW9AtsY4_7O7bejqgjF3-135" style="edgeStyle=orthogonalEdgeStyle;rounded=0;orthogonalLoop=1;jettySize=auto;html=1;exitX=0;exitY=0.5;exitDx=0;exitDy=0;entryX=0.5;entryY=0;entryDx=0;entryDy=0;" edge="1" parent="1" source="xW9AtsY4_7O7bejqgjF3-26" target="xW9AtsY4_7O7bejqgjF3-29">
          <mxGeometry relative="1" as="geometry" />
        </mxCell>
        <mxCell id="xW9AtsY4_7O7bejqgjF3-26" value="Fill visible boards with dots" style="rounded=1;whiteSpace=wrap;html=1;absoluteArcSize=1;arcSize=14;strokeWidth=2;" vertex="1" parent="1">
          <mxGeometry x="328" y="310" width="86" height="70" as="geometry" />
        </mxCell>
        <mxCell id="xW9AtsY4_7O7bejqgjF3-136" style="edgeStyle=orthogonalEdgeStyle;rounded=0;orthogonalLoop=1;jettySize=auto;html=1;exitX=0.5;exitY=1;exitDx=0;exitDy=0;entryX=0.5;entryY=0;entryDx=0;entryDy=0;entryPerimeter=0;" edge="1" parent="1" source="xW9AtsY4_7O7bejqgjF3-79" target="xW9AtsY4_7O7bejqgjF3-83">
          <mxGeometry relative="1" as="geometry" />
        </mxCell>
        <mxCell id="xW9AtsY4_7O7bejqgjF3-138" style="edgeStyle=orthogonalEdgeStyle;rounded=0;orthogonalLoop=1;jettySize=auto;html=1;exitX=0.5;exitY=1;exitDx=0;exitDy=0;entryX=0.5;entryY=0;entryDx=0;entryDy=0;entryPerimeter=0;" edge="1" parent="1" source="xW9AtsY4_7O7bejqgjF3-74" target="xW9AtsY4_7O7bejqgjF3-83">
          <mxGeometry relative="1" as="geometry" />
        </mxCell>
        <mxCell id="xW9AtsY4_7O7bejqgjF3-149" style="edgeStyle=orthogonalEdgeStyle;rounded=0;orthogonalLoop=1;jettySize=auto;html=1;exitX=0.5;exitY=1;exitDx=0;exitDy=0;entryX=0.5;entryY=0;entryDx=0;entryDy=0;" edge="1" parent="1" source="xW9AtsY4_7O7bejqgjF3-142" target="xW9AtsY4_7O7bejqgjF3-151">
          <mxGeometry relative="1" as="geometry">
            <mxPoint x="130" y="600" as="targetPoint" />
          </mxGeometry>
        </mxCell>
        <mxCell id="xW9AtsY4_7O7bejqgjF3-237" value="case 1" style="edgeLabel;html=1;align=center;verticalAlign=middle;resizable=0;points=[];" vertex="1" connectable="0" parent="xW9AtsY4_7O7bejqgjF3-149">
          <mxGeometry x="-0.0249" y="-1" relative="1" as="geometry">
            <mxPoint as="offset" />
          </mxGeometry>
        </mxCell>
        <mxCell id="xW9AtsY4_7O7bejqgjF3-150" style="edgeStyle=orthogonalEdgeStyle;rounded=0;orthogonalLoop=1;jettySize=auto;html=1;exitX=0.5;exitY=1;exitDx=0;exitDy=0;" edge="1" parent="1" source="xW9AtsY4_7O7bejqgjF3-142">
          <mxGeometry relative="1" as="geometry">
            <mxPoint x="600" y="600" as="targetPoint" />
          </mxGeometry>
        </mxCell>
        <mxCell id="xW9AtsY4_7O7bejqgjF3-238" value="case 2" style="edgeLabel;html=1;align=center;verticalAlign=middle;resizable=0;points=[];" vertex="1" connectable="0" parent="xW9AtsY4_7O7bejqgjF3-150">
          <mxGeometry x="-0.0005" y="1" relative="1" as="geometry">
            <mxPoint as="offset" />
          </mxGeometry>
        </mxCell>
        <mxCell id="xW9AtsY4_7O7bejqgjF3-142" value="&lt;font style=&quot;font-size: 24px;&quot;&gt;gameLoop&lt;/font&gt;" style="rounded=1;whiteSpace=wrap;html=1;absoluteArcSize=1;arcSize=14;strokeWidth=2;" vertex="1" parent="1">
          <mxGeometry x="306.5" y="440" width="129" height="60" as="geometry" />
        </mxCell>
        <mxCell id="xW9AtsY4_7O7bejqgjF3-153" style="edgeStyle=orthogonalEdgeStyle;rounded=0;orthogonalLoop=1;jettySize=auto;html=1;exitX=0.5;exitY=1;exitDx=0;exitDy=0;" edge="1" parent="1" source="xW9AtsY4_7O7bejqgjF3-151">
          <mxGeometry relative="1" as="geometry">
            <mxPoint x="190" y="670" as="targetPoint" />
          </mxGeometry>
        </mxCell>
        <mxCell id="xW9AtsY4_7O7bejqgjF3-151" value="case 1" style="rounded=1;whiteSpace=wrap;html=1;absoluteArcSize=1;arcSize=14;strokeWidth=2;" vertex="1" parent="1">
          <mxGeometry x="140" y="600" width="100" height="30" as="geometry" />
        </mxCell>
        <mxCell id="xW9AtsY4_7O7bejqgjF3-196" style="edgeStyle=orthogonalEdgeStyle;rounded=0;orthogonalLoop=1;jettySize=auto;html=1;exitX=0.5;exitY=1;exitDx=0;exitDy=0;entryX=0.5;entryY=0;entryDx=0;entryDy=0;" edge="1" parent="1" source="xW9AtsY4_7O7bejqgjF3-152" target="xW9AtsY4_7O7bejqgjF3-179">
          <mxGeometry relative="1" as="geometry" />
        </mxCell>
        <mxCell id="xW9AtsY4_7O7bejqgjF3-152" value="case 2" style="rounded=1;whiteSpace=wrap;html=1;absoluteArcSize=1;arcSize=14;strokeWidth=2;" vertex="1" parent="1">
          <mxGeometry x="550" y="600" width="100" height="30" as="geometry" />
        </mxCell>
        <mxCell id="xW9AtsY4_7O7bejqgjF3-155" style="edgeStyle=orthogonalEdgeStyle;rounded=0;orthogonalLoop=1;jettySize=auto;html=1;exitX=0.5;exitY=1;exitDx=0;exitDy=0;" edge="1" parent="1" source="xW9AtsY4_7O7bejqgjF3-154">
          <mxGeometry relative="1" as="geometry">
            <mxPoint x="190" y="750" as="targetPoint" />
          </mxGeometry>
        </mxCell>
        <mxCell id="xW9AtsY4_7O7bejqgjF3-154" value="Print board with coordinates" style="rounded=1;whiteSpace=wrap;html=1;absoluteArcSize=1;arcSize=14;strokeWidth=2;" vertex="1" parent="1">
          <mxGeometry x="140" y="670" width="100" height="50" as="geometry" />
        </mxCell>
        <mxCell id="xW9AtsY4_7O7bejqgjF3-156" value="Get coordinate&lt;br&gt;to shoot" style="rounded=1;whiteSpace=wrap;html=1;absoluteArcSize=1;arcSize=14;strokeWidth=2;" vertex="1" parent="1">
          <mxGeometry x="140" y="750" width="100" height="40" as="geometry" />
        </mxCell>
        <mxCell id="xW9AtsY4_7O7bejqgjF3-159" style="edgeStyle=orthogonalEdgeStyle;rounded=0;orthogonalLoop=1;jettySize=auto;html=1;exitX=0.5;exitY=1;exitDx=0;exitDy=0;exitPerimeter=0;" edge="1" parent="1" source="xW9AtsY4_7O7bejqgjF3-157">
          <mxGeometry relative="1" as="geometry">
            <mxPoint x="190" y="980" as="targetPoint" />
          </mxGeometry>
        </mxCell>
        <mxCell id="xW9AtsY4_7O7bejqgjF3-160" value="&lt;font style=&quot;font-size: 18px;&quot;&gt;true&lt;/font&gt;" style="edgeLabel;html=1;align=center;verticalAlign=middle;resizable=0;points=[];" vertex="1" connectable="0" parent="xW9AtsY4_7O7bejqgjF3-159">
          <mxGeometry x="-0.0412" y="1" relative="1" as="geometry">
            <mxPoint as="offset" />
          </mxGeometry>
        </mxCell>
        <mxCell id="xW9AtsY4_7O7bejqgjF3-163" style="edgeStyle=orthogonalEdgeStyle;rounded=0;orthogonalLoop=1;jettySize=auto;html=1;exitX=0;exitY=0.5;exitDx=0;exitDy=0;exitPerimeter=0;entryX=0.5;entryY=1;entryDx=0;entryDy=0;" edge="1" parent="1" source="xW9AtsY4_7O7bejqgjF3-157" target="xW9AtsY4_7O7bejqgjF3-162">
          <mxGeometry relative="1" as="geometry" />
        </mxCell>
        <mxCell id="xW9AtsY4_7O7bejqgjF3-165" value="&lt;font style=&quot;font-size: 18px;&quot;&gt;false&lt;/font&gt;" style="edgeLabel;html=1;align=center;verticalAlign=middle;resizable=0;points=[];" vertex="1" connectable="0" parent="xW9AtsY4_7O7bejqgjF3-163">
          <mxGeometry x="-0.2267" relative="1" as="geometry">
            <mxPoint as="offset" />
          </mxGeometry>
        </mxCell>
        <mxCell id="xW9AtsY4_7O7bejqgjF3-157" value="is valid" style="strokeWidth=2;html=1;shape=mxgraph.flowchart.decision;whiteSpace=wrap;" vertex="1" parent="1">
          <mxGeometry x="140" y="810" width="100" height="100" as="geometry" />
        </mxCell>
        <mxCell id="xW9AtsY4_7O7bejqgjF3-158" style="edgeStyle=orthogonalEdgeStyle;rounded=0;orthogonalLoop=1;jettySize=auto;html=1;exitX=0.5;exitY=1;exitDx=0;exitDy=0;entryX=0.5;entryY=0;entryDx=0;entryDy=0;entryPerimeter=0;" edge="1" parent="1" source="xW9AtsY4_7O7bejqgjF3-156" target="xW9AtsY4_7O7bejqgjF3-157">
          <mxGeometry relative="1" as="geometry" />
        </mxCell>
        <mxCell id="xW9AtsY4_7O7bejqgjF3-164" style="edgeStyle=orthogonalEdgeStyle;rounded=0;orthogonalLoop=1;jettySize=auto;html=1;exitX=0.5;exitY=0;exitDx=0;exitDy=0;entryX=0;entryY=0.5;entryDx=0;entryDy=0;" edge="1" parent="1" source="xW9AtsY4_7O7bejqgjF3-162" target="xW9AtsY4_7O7bejqgjF3-156">
          <mxGeometry relative="1" as="geometry" />
        </mxCell>
        <mxCell id="xW9AtsY4_7O7bejqgjF3-162" value="already shot" style="rounded=1;whiteSpace=wrap;html=1;absoluteArcSize=1;arcSize=14;strokeWidth=2;" vertex="1" parent="1">
          <mxGeometry x="30" y="790" width="80" height="30" as="geometry" />
        </mxCell>
        <mxCell id="xW9AtsY4_7O7bejqgjF3-166" value="Save to record" style="rounded=1;whiteSpace=wrap;html=1;absoluteArcSize=1;arcSize=14;strokeWidth=2;" vertex="1" parent="1">
          <mxGeometry x="140" y="985" width="100" height="35" as="geometry" />
        </mxCell>
        <mxCell id="xW9AtsY4_7O7bejqgjF3-224" style="edgeStyle=orthogonalEdgeStyle;rounded=0;orthogonalLoop=1;jettySize=auto;html=1;exitX=1;exitY=0.5;exitDx=0;exitDy=0;exitPerimeter=0;entryX=0;entryY=0.5;entryDx=0;entryDy=0;" edge="1" parent="1" source="xW9AtsY4_7O7bejqgjF3-167" target="xW9AtsY4_7O7bejqgjF3-200">
          <mxGeometry relative="1" as="geometry" />
        </mxCell>
        <mxCell id="xW9AtsY4_7O7bejqgjF3-225" value="false" style="edgeLabel;html=1;align=center;verticalAlign=middle;resizable=0;points=[];" vertex="1" connectable="0" parent="xW9AtsY4_7O7bejqgjF3-224">
          <mxGeometry x="-0.0958" relative="1" as="geometry">
            <mxPoint as="offset" />
          </mxGeometry>
        </mxCell>
        <mxCell id="xW9AtsY4_7O7bejqgjF3-167" value="is hit" style="strokeWidth=2;html=1;shape=mxgraph.flowchart.decision;whiteSpace=wrap;" vertex="1" parent="1">
          <mxGeometry x="145" y="1055" width="90" height="75" as="geometry" />
        </mxCell>
        <mxCell id="xW9AtsY4_7O7bejqgjF3-168" style="edgeStyle=orthogonalEdgeStyle;rounded=0;orthogonalLoop=1;jettySize=auto;html=1;exitX=0.5;exitY=1;exitDx=0;exitDy=0;entryX=0.5;entryY=0;entryDx=0;entryDy=0;entryPerimeter=0;" edge="1" parent="1" source="xW9AtsY4_7O7bejqgjF3-166" target="xW9AtsY4_7O7bejqgjF3-167">
          <mxGeometry relative="1" as="geometry" />
        </mxCell>
        <mxCell id="xW9AtsY4_7O7bejqgjF3-250" style="edgeStyle=orthogonalEdgeStyle;rounded=0;orthogonalLoop=1;jettySize=auto;html=1;exitX=0.5;exitY=1;exitDx=0;exitDy=0;entryX=0.5;entryY=0;entryDx=0;entryDy=0;" edge="1" parent="1" source="xW9AtsY4_7O7bejqgjF3-179" target="xW9AtsY4_7O7bejqgjF3-180">
          <mxGeometry relative="1" as="geometry" />
        </mxCell>
        <mxCell id="xW9AtsY4_7O7bejqgjF3-179" value="Print board with coordinates" style="rounded=1;whiteSpace=wrap;html=1;absoluteArcSize=1;arcSize=14;strokeWidth=2;" vertex="1" parent="1">
          <mxGeometry x="550" y="662.5" width="100" height="50" as="geometry" />
        </mxCell>
        <mxCell id="xW9AtsY4_7O7bejqgjF3-180" value="Get coordinate&lt;br&gt;to shoot" style="rounded=1;whiteSpace=wrap;html=1;absoluteArcSize=1;arcSize=14;strokeWidth=2;" vertex="1" parent="1">
          <mxGeometry x="550" y="760" width="100" height="40" as="geometry" />
        </mxCell>
        <mxCell id="xW9AtsY4_7O7bejqgjF3-181" style="edgeStyle=orthogonalEdgeStyle;rounded=0;orthogonalLoop=1;jettySize=auto;html=1;exitX=0.5;exitY=1;exitDx=0;exitDy=0;exitPerimeter=0;" edge="1" parent="1" source="xW9AtsY4_7O7bejqgjF3-185">
          <mxGeometry relative="1" as="geometry">
            <mxPoint x="600" y="972.5" as="targetPoint" />
          </mxGeometry>
        </mxCell>
        <mxCell id="xW9AtsY4_7O7bejqgjF3-182" value="&lt;font style=&quot;font-size: 18px;&quot;&gt;true&lt;/font&gt;" style="edgeLabel;html=1;align=center;verticalAlign=middle;resizable=0;points=[];" vertex="1" connectable="0" parent="xW9AtsY4_7O7bejqgjF3-181">
          <mxGeometry x="-0.0412" y="1" relative="1" as="geometry">
            <mxPoint as="offset" />
          </mxGeometry>
        </mxCell>
        <mxCell id="xW9AtsY4_7O7bejqgjF3-204" style="edgeStyle=orthogonalEdgeStyle;rounded=0;orthogonalLoop=1;jettySize=auto;html=1;exitX=1;exitY=0.5;exitDx=0;exitDy=0;exitPerimeter=0;entryX=0.5;entryY=1;entryDx=0;entryDy=0;" edge="1" parent="1" source="xW9AtsY4_7O7bejqgjF3-185" target="xW9AtsY4_7O7bejqgjF3-203">
          <mxGeometry relative="1" as="geometry" />
        </mxCell>
        <mxCell id="xW9AtsY4_7O7bejqgjF3-205" value="&lt;font style=&quot;font-size: 18px;&quot;&gt;false&lt;/font&gt;" style="edgeLabel;html=1;align=center;verticalAlign=middle;resizable=0;points=[];" vertex="1" connectable="0" parent="xW9AtsY4_7O7bejqgjF3-204">
          <mxGeometry x="-0.28" y="2" relative="1" as="geometry">
            <mxPoint x="1" as="offset" />
          </mxGeometry>
        </mxCell>
        <mxCell id="xW9AtsY4_7O7bejqgjF3-185" value="is valid" style="strokeWidth=2;html=1;shape=mxgraph.flowchart.decision;whiteSpace=wrap;" vertex="1" parent="1">
          <mxGeometry x="550" y="820" width="100" height="100" as="geometry" />
        </mxCell>
        <mxCell id="xW9AtsY4_7O7bejqgjF3-189" value="Save to record" style="rounded=1;whiteSpace=wrap;html=1;absoluteArcSize=1;arcSize=14;strokeWidth=2;" vertex="1" parent="1">
          <mxGeometry x="550" y="977.5" width="100" height="35" as="geometry" />
        </mxCell>
        <mxCell id="xW9AtsY4_7O7bejqgjF3-193" value="is hit" style="strokeWidth=2;html=1;shape=mxgraph.flowchart.decision;whiteSpace=wrap;" vertex="1" parent="1">
          <mxGeometry x="555" y="1047.5" width="90" height="75" as="geometry" />
        </mxCell>
        <mxCell id="xW9AtsY4_7O7bejqgjF3-194" style="edgeStyle=orthogonalEdgeStyle;rounded=0;orthogonalLoop=1;jettySize=auto;html=1;exitX=0.5;exitY=1;exitDx=0;exitDy=0;entryX=0.5;entryY=0;entryDx=0;entryDy=0;entryPerimeter=0;" edge="1" parent="1" source="xW9AtsY4_7O7bejqgjF3-189" target="xW9AtsY4_7O7bejqgjF3-193">
          <mxGeometry relative="1" as="geometry" />
        </mxCell>
        <mxCell id="xW9AtsY4_7O7bejqgjF3-207" style="edgeStyle=orthogonalEdgeStyle;rounded=0;orthogonalLoop=1;jettySize=auto;html=1;exitX=0.5;exitY=0;exitDx=0;exitDy=0;entryX=1;entryY=0.5;entryDx=0;entryDy=0;" edge="1" parent="1" source="xW9AtsY4_7O7bejqgjF3-198" target="xW9AtsY4_7O7bejqgjF3-151">
          <mxGeometry relative="1" as="geometry">
            <Array as="points">
              <mxPoint x="470" y="615" />
            </Array>
          </mxGeometry>
        </mxCell>
        <mxCell id="xW9AtsY4_7O7bejqgjF3-220" value="&lt;font style=&quot;font-size: 24px;&quot;&gt;case 1&lt;/font&gt;" style="edgeLabel;html=1;align=center;verticalAlign=middle;resizable=0;points=[];" vertex="1" connectable="0" parent="xW9AtsY4_7O7bejqgjF3-207">
          <mxGeometry x="-0.4111" relative="1" as="geometry">
            <mxPoint y="-14" as="offset" />
          </mxGeometry>
        </mxCell>
        <mxCell id="xW9AtsY4_7O7bejqgjF3-198" value="Miss, turn = 1" style="rounded=1;whiteSpace=wrap;html=1;absoluteArcSize=1;arcSize=14;strokeWidth=2;" vertex="1" parent="1">
          <mxGeometry x="400" y="1065" width="100" height="55" as="geometry" />
        </mxCell>
        <mxCell id="xW9AtsY4_7O7bejqgjF3-199" style="edgeStyle=orthogonalEdgeStyle;rounded=0;orthogonalLoop=1;jettySize=auto;html=1;exitX=0;exitY=0.5;exitDx=0;exitDy=0;exitPerimeter=0;entryX=1.036;entryY=0.379;entryDx=0;entryDy=0;entryPerimeter=0;" edge="1" parent="1" source="xW9AtsY4_7O7bejqgjF3-193" target="xW9AtsY4_7O7bejqgjF3-198">
          <mxGeometry relative="1" as="geometry" />
        </mxCell>
        <mxCell id="xW9AtsY4_7O7bejqgjF3-221" value="false" style="edgeLabel;html=1;align=center;verticalAlign=middle;resizable=0;points=[];" vertex="1" connectable="0" parent="xW9AtsY4_7O7bejqgjF3-199">
          <mxGeometry x="-0.2051" relative="1" as="geometry">
            <mxPoint as="offset" />
          </mxGeometry>
        </mxCell>
        <mxCell id="xW9AtsY4_7O7bejqgjF3-201" style="edgeStyle=orthogonalEdgeStyle;rounded=0;orthogonalLoop=1;jettySize=auto;html=1;exitX=0.5;exitY=0;exitDx=0;exitDy=0;entryX=0;entryY=0.5;entryDx=0;entryDy=0;" edge="1" parent="1" source="xW9AtsY4_7O7bejqgjF3-200" target="xW9AtsY4_7O7bejqgjF3-152">
          <mxGeometry relative="1" as="geometry">
            <Array as="points">
              <mxPoint x="347" y="650" />
              <mxPoint x="510" y="650" />
              <mxPoint x="510" y="615" />
            </Array>
          </mxGeometry>
        </mxCell>
        <mxCell id="xW9AtsY4_7O7bejqgjF3-219" value="&lt;font style=&quot;font-size: 24px;&quot;&gt;case 2&lt;/font&gt;" style="edgeLabel;html=1;align=center;verticalAlign=middle;resizable=0;points=[];" vertex="1" connectable="0" parent="xW9AtsY4_7O7bejqgjF3-201">
          <mxGeometry x="-0.3823" relative="1" as="geometry">
            <mxPoint as="offset" />
          </mxGeometry>
        </mxCell>
        <mxCell id="xW9AtsY4_7O7bejqgjF3-200" value="Miss, turn = 2" style="rounded=1;whiteSpace=wrap;html=1;absoluteArcSize=1;arcSize=14;strokeWidth=2;" vertex="1" parent="1">
          <mxGeometry x="290" y="1065" width="100" height="55" as="geometry" />
        </mxCell>
        <mxCell id="xW9AtsY4_7O7bejqgjF3-206" style="edgeStyle=orthogonalEdgeStyle;rounded=0;orthogonalLoop=1;jettySize=auto;html=1;exitX=0.5;exitY=0;exitDx=0;exitDy=0;entryX=1;entryY=0.5;entryDx=0;entryDy=0;" edge="1" parent="1" source="xW9AtsY4_7O7bejqgjF3-203" target="xW9AtsY4_7O7bejqgjF3-180">
          <mxGeometry relative="1" as="geometry" />
        </mxCell>
        <mxCell id="xW9AtsY4_7O7bejqgjF3-203" value="already shot" style="rounded=1;whiteSpace=wrap;html=1;absoluteArcSize=1;arcSize=14;strokeWidth=2;" vertex="1" parent="1">
          <mxGeometry x="690" y="800" width="80" height="30" as="geometry" />
        </mxCell>
        <mxCell id="xW9AtsY4_7O7bejqgjF3-213" style="edgeStyle=orthogonalEdgeStyle;rounded=0;orthogonalLoop=1;jettySize=auto;html=1;exitX=0;exitY=0.5;exitDx=0;exitDy=0;exitPerimeter=0;entryX=0;entryY=0.5;entryDx=0;entryDy=0;" edge="1" parent="1" source="xW9AtsY4_7O7bejqgjF3-210" target="xW9AtsY4_7O7bejqgjF3-151">
          <mxGeometry relative="1" as="geometry">
            <Array as="points">
              <mxPoint x="-10" y="1093" />
              <mxPoint x="-10" y="615" />
            </Array>
          </mxGeometry>
        </mxCell>
        <mxCell id="xW9AtsY4_7O7bejqgjF3-214" value="&lt;font style=&quot;font-size: 24px;&quot;&gt;false&lt;/font&gt;" style="edgeLabel;html=1;align=center;verticalAlign=middle;resizable=0;points=[];" vertex="1" connectable="0" parent="xW9AtsY4_7O7bejqgjF3-213">
          <mxGeometry x="-0.2337" y="1" relative="1" as="geometry">
            <mxPoint as="offset" />
          </mxGeometry>
        </mxCell>
        <mxCell id="xW9AtsY4_7O7bejqgjF3-248" style="edgeStyle=orthogonalEdgeStyle;rounded=0;orthogonalLoop=1;jettySize=auto;html=1;exitX=0.5;exitY=1;exitDx=0;exitDy=0;exitPerimeter=0;entryX=0.5;entryY=0;entryDx=0;entryDy=0;" edge="1" parent="1" source="xW9AtsY4_7O7bejqgjF3-210" target="xW9AtsY4_7O7bejqgjF3-245">
          <mxGeometry relative="1" as="geometry" />
        </mxCell>
        <mxCell id="xW9AtsY4_7O7bejqgjF3-249" value="&lt;font style=&quot;font-size: 24px;&quot;&gt;true&lt;/font&gt;" style="edgeLabel;html=1;align=center;verticalAlign=middle;resizable=0;points=[];" vertex="1" connectable="0" parent="xW9AtsY4_7O7bejqgjF3-248">
          <mxGeometry x="-0.1429" y="1" relative="1" as="geometry">
            <mxPoint as="offset" />
          </mxGeometry>
        </mxCell>
        <mxCell id="xW9AtsY4_7O7bejqgjF3-210" value="is&lt;br&gt;hits1=15" style="strokeWidth=2;html=1;shape=mxgraph.flowchart.decision;whiteSpace=wrap;" vertex="1" parent="1">
          <mxGeometry x="20" y="1050" width="80" height="85" as="geometry" />
        </mxCell>
        <mxCell id="xW9AtsY4_7O7bejqgjF3-212" style="edgeStyle=orthogonalEdgeStyle;rounded=0;orthogonalLoop=1;jettySize=auto;html=1;exitX=0;exitY=0.5;exitDx=0;exitDy=0;exitPerimeter=0;entryX=1;entryY=0.5;entryDx=0;entryDy=0;entryPerimeter=0;" edge="1" parent="1" source="xW9AtsY4_7O7bejqgjF3-167" target="xW9AtsY4_7O7bejqgjF3-210">
          <mxGeometry relative="1" as="geometry" />
        </mxCell>
        <mxCell id="xW9AtsY4_7O7bejqgjF3-234" value="true" style="edgeLabel;html=1;align=center;verticalAlign=middle;resizable=0;points=[];" vertex="1" connectable="0" parent="xW9AtsY4_7O7bejqgjF3-212">
          <mxGeometry x="-0.1909" relative="1" as="geometry">
            <mxPoint as="offset" />
          </mxGeometry>
        </mxCell>
        <mxCell id="xW9AtsY4_7O7bejqgjF3-229" style="edgeStyle=orthogonalEdgeStyle;rounded=0;orthogonalLoop=1;jettySize=auto;html=1;exitX=1;exitY=0.5;exitDx=0;exitDy=0;exitPerimeter=0;entryX=1;entryY=0.5;entryDx=0;entryDy=0;" edge="1" parent="1" source="xW9AtsY4_7O7bejqgjF3-227" target="xW9AtsY4_7O7bejqgjF3-152">
          <mxGeometry relative="1" as="geometry">
            <Array as="points">
              <mxPoint x="800" y="1085" />
              <mxPoint x="800" y="615" />
            </Array>
          </mxGeometry>
        </mxCell>
        <mxCell id="xW9AtsY4_7O7bejqgjF3-230" value="&lt;font style=&quot;font-size: 24px;&quot;&gt;false&lt;/font&gt;" style="edgeLabel;html=1;align=center;verticalAlign=middle;resizable=0;points=[];" vertex="1" connectable="0" parent="xW9AtsY4_7O7bejqgjF3-229">
          <mxGeometry x="-0.267" y="2" relative="1" as="geometry">
            <mxPoint y="-1" as="offset" />
          </mxGeometry>
        </mxCell>
        <mxCell id="xW9AtsY4_7O7bejqgjF3-231" style="edgeStyle=orthogonalEdgeStyle;rounded=0;orthogonalLoop=1;jettySize=auto;html=1;exitX=0.5;exitY=1;exitDx=0;exitDy=0;exitPerimeter=0;" edge="1" parent="1" source="xW9AtsY4_7O7bejqgjF3-227">
          <mxGeometry relative="1" as="geometry">
            <mxPoint x="729.7647058823532" y="1240" as="targetPoint" />
          </mxGeometry>
        </mxCell>
        <mxCell id="xW9AtsY4_7O7bejqgjF3-232" value="&lt;font style=&quot;font-size: 24px;&quot;&gt;true&lt;/font&gt;" style="edgeLabel;html=1;align=center;verticalAlign=middle;resizable=0;points=[];" vertex="1" connectable="0" parent="xW9AtsY4_7O7bejqgjF3-231">
          <mxGeometry x="-0.1395" relative="1" as="geometry">
            <mxPoint as="offset" />
          </mxGeometry>
        </mxCell>
        <mxCell id="xW9AtsY4_7O7bejqgjF3-227" value="is&lt;br&gt;hits2=15" style="strokeWidth=2;html=1;shape=mxgraph.flowchart.decision;whiteSpace=wrap;" vertex="1" parent="1">
          <mxGeometry x="690" y="1042.5" width="80" height="85" as="geometry" />
        </mxCell>
        <mxCell id="xW9AtsY4_7O7bejqgjF3-228" style="edgeStyle=orthogonalEdgeStyle;rounded=0;orthogonalLoop=1;jettySize=auto;html=1;exitX=1;exitY=0.5;exitDx=0;exitDy=0;exitPerimeter=0;entryX=0;entryY=0.5;entryDx=0;entryDy=0;entryPerimeter=0;" edge="1" parent="1" source="xW9AtsY4_7O7bejqgjF3-193" target="xW9AtsY4_7O7bejqgjF3-227">
          <mxGeometry relative="1" as="geometry" />
        </mxCell>
        <mxCell id="xW9AtsY4_7O7bejqgjF3-233" value="true" style="edgeLabel;html=1;align=center;verticalAlign=middle;resizable=0;points=[];" vertex="1" connectable="0" parent="xW9AtsY4_7O7bejqgjF3-228">
          <mxGeometry x="-0.0498" y="-1" relative="1" as="geometry">
            <mxPoint as="offset" />
          </mxGeometry>
        </mxCell>
        <mxCell id="xW9AtsY4_7O7bejqgjF3-239" style="edgeStyle=orthogonalEdgeStyle;rounded=0;orthogonalLoop=1;jettySize=auto;html=1;exitX=0.5;exitY=1;exitDx=0;exitDy=0;entryX=0.5;entryY=0;entryDx=0;entryDy=0;entryPerimeter=0;" edge="1" parent="1" source="xW9AtsY4_7O7bejqgjF3-180" target="xW9AtsY4_7O7bejqgjF3-185">
          <mxGeometry relative="1" as="geometry" />
        </mxCell>
        <mxCell id="xW9AtsY4_7O7bejqgjF3-240" value="P2 Wins" style="rounded=1;whiteSpace=wrap;html=1;absoluteArcSize=1;arcSize=14;strokeWidth=2;" vertex="1" parent="1">
          <mxGeometry x="680" y="1240" width="100" height="40" as="geometry" />
        </mxCell>
        <mxCell id="xW9AtsY4_7O7bejqgjF3-243" value="End" style="strokeWidth=2;html=1;shape=mxgraph.flowchart.start_1;whiteSpace=wrap;" vertex="1" parent="1">
          <mxGeometry x="680" y="1340" width="100" height="60" as="geometry" />
        </mxCell>
        <mxCell id="xW9AtsY4_7O7bejqgjF3-244" style="edgeStyle=orthogonalEdgeStyle;rounded=0;orthogonalLoop=1;jettySize=auto;html=1;exitX=0.5;exitY=1;exitDx=0;exitDy=0;entryX=0.5;entryY=0;entryDx=0;entryDy=0;entryPerimeter=0;" edge="1" parent="1" source="xW9AtsY4_7O7bejqgjF3-240" target="xW9AtsY4_7O7bejqgjF3-243">
          <mxGeometry relative="1" as="geometry" />
        </mxCell>
        <mxCell id="xW9AtsY4_7O7bejqgjF3-245" value="P1 Wins" style="rounded=1;whiteSpace=wrap;html=1;absoluteArcSize=1;arcSize=14;strokeWidth=2;" vertex="1" parent="1">
          <mxGeometry x="10" y="1240" width="100" height="40" as="geometry" />
        </mxCell>
        <mxCell id="xW9AtsY4_7O7bejqgjF3-246" value="End" style="strokeWidth=2;html=1;shape=mxgraph.flowchart.start_1;whiteSpace=wrap;" vertex="1" parent="1">
          <mxGeometry x="10" y="1340" width="100" height="60" as="geometry" />
        </mxCell>
        <mxCell id="xW9AtsY4_7O7bejqgjF3-247" style="edgeStyle=orthogonalEdgeStyle;rounded=0;orthogonalLoop=1;jettySize=auto;html=1;exitX=0.5;exitY=1;exitDx=0;exitDy=0;entryX=0.5;entryY=0;entryDx=0;entryDy=0;entryPerimeter=0;" edge="1" parent="1" source="xW9AtsY4_7O7bejqgjF3-245" target="xW9AtsY4_7O7bejqgjF3-246">
          <mxGeometry relative="1" as="geometry" />
        </mxCell>
      </root>
    </mxGraphModel>
  </diagram>
</mxfile>
